REM MD5 5dd05e8d26ecb7d70c7e0ed26e61ad1b
FILE "San Francisco Rush - Extreme Racing (Europe) (En,Fr,De,Es,It).bin" BINARY
  TRACK 01 MODE2/2352
    INDEX 01 00:00:00
  TRACK 02 AUDIO
    INDEX 00 08:10:30
    INDEX 01 08:12:30
  TRACK 03 AUDIO
    INDEX 00 12:12:21
    INDEX 01 12:14:21
  TRACK 04 AUDIO
    INDEX 00 15:42:05
    INDEX 01 15:44:05
  TRACK 05 AUDIO
    INDEX 00 19:49:62
    INDEX 01 19:51:62
REM LEADOUT 24:27:14
